<?xml version="1.0" encoding="UTF-8" standalone="no"?>
<!DOCTYPE svg PUBLIC "-//W3C//DTD SVG 1.1//EN"
 "http://www.w3.org/Graphics/SVG/1.1/DTD/svg11.dtd">
<!-- Generated by graphviz version 2.38.0 (20140413.2041)
 -->
<!-- Title: G Pages: 1 -->
<svg width="434pt" height="1058pt"
 viewBox="0.00 0.00 434.00 1058.00" xmlns="http://www.w3.org/2000/svg" xmlns:xlink="http://www.w3.org/1999/xlink">
<g id="graph0" class="graph" transform="scale(1 1) rotate(0) translate(4 1054)">
<title>G</title>
<polygon fill="white" stroke="none" points="-4,4 -4,-1054 430,-1054 430,4 -4,4"/>
<g id="clust1" class="cluster"><title>cluster_Global</title>
<path fill="none" stroke="gray" d="M20,-8C20,-8 406,-8 406,-8 412,-8 418,-14 418,-20 418,-20 418,-1030 418,-1030 418,-1036 412,-1042 406,-1042 406,-1042 20,-1042 20,-1042 14,-1042 8,-1036 8,-1030 8,-1030 8,-20 8,-20 8,-14 14,-8 20,-8"/>
<text text-anchor="middle" x="213" y="-1029.2" font-family="Times,serif" font-size="11.00" fill="gray">Global</text>
</g>
<g id="clust2" class="cluster"><title>cluster_\odontoIFMA</title>
<path fill="none" stroke="gray" d="M28,-16C28,-16 398,-16 398,-16 404,-16 410,-22 410,-28 410,-28 410,-1002 410,-1002 410,-1008 404,-1014 398,-1014 398,-1014 28,-1014 28,-1014 22,-1014 16,-1008 16,-1002 16,-1002 16,-28 16,-28 16,-22 22,-16 28,-16"/>
<text text-anchor="middle" x="213" y="-1001.2" font-family="Times,serif" font-size="11.00" fill="gray">odontoIFMA</text>
</g>
<g id="clust3" class="cluster"><title>cluster_\odontoIFMA\controller</title>
<path fill="none" stroke="gray" d="M36,-752C36,-752 383,-752 383,-752 389,-752 395,-758 395,-764 395,-764 395,-974 395,-974 395,-980 389,-986 383,-986 383,-986 36,-986 36,-986 30,-986 24,-980 24,-974 24,-974 24,-764 24,-764 24,-758 30,-752 36,-752"/>
<text text-anchor="middle" x="209.5" y="-973.2" font-family="Times,serif" font-size="11.00" fill="gray">controller</text>
</g>
<g id="clust4" class="cluster"><title>cluster_\odontoIFMA\entity</title>
<path fill="none" stroke="gray" d="M246,-24C246,-24 390,-24 390,-24 396,-24 402,-30 402,-36 402,-36 402,-732 402,-732 402,-738 396,-744 390,-744 390,-744 246,-744 246,-744 240,-744 234,-738 234,-732 234,-732 234,-36 234,-36 234,-30 240,-24 246,-24"/>
<text text-anchor="middle" x="318" y="-731.2" font-family="Times,serif" font-size="11.00" fill="gray">entity</text>
</g>
<!-- \\odontoIFMA\\controller\\AbstractController -->
<g id="node1" class="node"><title>\\odontoIFMA\\controller\\AbstractController</title>
<polygon fill="none" stroke="black" points="170,-877 32,-877 32,-841 170,-841 170,-877"/>
<text text-anchor="start" x="67" y="-862.2" font-family="Courier,monospace" font-size="11.00">«abstract»</text>
<text text-anchor="start" x="40" y="-850.2" font-family="Courier,monospace" font-size="11.00">AbstractController</text>
</g>
<!-- \\odontoIFMA\\controller\\TesteController -->
<g id="node2" class="node"><title>\\odontoIFMA\\controller\\TesteController</title>
<polygon fill="none" stroke="black" points="377,-958 259,-958 259,-922 377,-922 377,-958"/>
<text text-anchor="middle" x="318" y="-937.2" font-family="Courier,monospace" font-size="11.00">TesteController</text>
</g>
<!-- \\odontoIFMA\\controller\\TesteController&#45;&gt;\\odontoIFMA\\controller\\AbstractController -->
<g id="edge1" class="edge"><title>\\odontoIFMA\\controller\\TesteController&#45;&gt;\\odontoIFMA\\controller\\AbstractController</title>
<path fill="none" stroke="black" d="M259.659,-921.959C251.025,-919.066 242.252,-916.025 234,-913 207.115,-903.143 177.582,-891.172 153.281,-881.008"/>
<polygon fill="none" stroke="black" points="154.473,-877.713 143.898,-877.065 151.761,-884.166 154.473,-877.713"/>
</g>
<!-- \\odontoIFMA\\controller\\IndexController -->
<g id="node3" class="node"><title>\\odontoIFMA\\controller\\IndexController</title>
<polygon fill="none" stroke="black" points="377,-904 259,-904 259,-868 377,-868 377,-904"/>
<text text-anchor="middle" x="318" y="-883.2" font-family="Courier,monospace" font-size="11.00">IndexController</text>
</g>
<!-- \\odontoIFMA\\controller\\IndexController&#45;&gt;\\odontoIFMA\\controller\\AbstractController -->
<g id="edge2" class="edge"><title>\\odontoIFMA\\controller\\IndexController&#45;&gt;\\odontoIFMA\\controller\\AbstractController</title>
<path fill="none" stroke="black" d="M258.818,-878.693C234.665,-875.66 206.27,-872.094 180.328,-868.837"/>
<polygon fill="none" stroke="black" points="180.501,-865.331 170.143,-867.557 179.629,-872.276 180.501,-865.331"/>
</g>
<!-- \\odontoIFMA\\controller\\CadastroController -->
<g id="node4" class="node"><title>\\odontoIFMA\\controller\\CadastroController</title>
<polygon fill="none" stroke="black" points="387,-850 249,-850 249,-814 387,-814 387,-850"/>
<text text-anchor="middle" x="318" y="-829.2" font-family="Courier,monospace" font-size="11.00">CadastroController</text>
</g>
<!-- \\odontoIFMA\\controller\\CadastroController&#45;&gt;\\odontoIFMA\\controller\\AbstractController -->
<g id="edge3" class="edge"><title>\\odontoIFMA\\controller\\CadastroController&#45;&gt;\\odontoIFMA\\controller\\AbstractController</title>
<path fill="none" stroke="black" d="M248.973,-840.543C227.209,-843.276 202.939,-846.324 180.492,-849.143"/>
<polygon fill="none" stroke="black" points="179.809,-845.701 170.323,-850.42 180.681,-852.647 179.809,-845.701"/>
</g>
<!-- \\odontoIFMA\\controller\\ConsultaController -->
<g id="node5" class="node"><title>\\odontoIFMA\\controller\\ConsultaController</title>
<polygon fill="none" stroke="black" points="387,-796 249,-796 249,-760 387,-760 387,-796"/>
<text text-anchor="middle" x="318" y="-775.2" font-family="Courier,monospace" font-size="11.00">ConsultaController</text>
</g>
<!-- \\odontoIFMA\\controller\\ConsultaController&#45;&gt;\\odontoIFMA\\controller\\AbstractController -->
<g id="edge4" class="edge"><title>\\odontoIFMA\\controller\\ConsultaController&#45;&gt;\\odontoIFMA\\controller\\AbstractController</title>
<path fill="none" stroke="black" d="M259.659,-796.041C251.025,-798.934 242.252,-801.975 234,-805 207.115,-814.857 177.582,-826.828 153.281,-836.992"/>
<polygon fill="none" stroke="black" points="151.761,-833.834 143.898,-840.935 154.473,-840.287 151.761,-833.834"/>
</g>
<!-- \\odontoIFMA\\entity\\Paciente -->
<g id="node6" class="node"><title>\\odontoIFMA\\entity\\Paciente</title>
<polygon fill="none" stroke="black" points="353.5,-716 282.5,-716 282.5,-680 353.5,-680 353.5,-716"/>
<text text-anchor="middle" x="318" y="-695.2" font-family="Courier,monospace" font-size="11.00">Paciente</text>
</g>
<!-- \\odontoIFMA\\entity\\Operador -->
<g id="node7" class="node"><title>\\odontoIFMA\\entity\\Operador</title>
<polygon fill="none" stroke="black" points="353.5,-662 282.5,-662 282.5,-626 353.5,-626 353.5,-662"/>
<text text-anchor="middle" x="318" y="-641.2" font-family="Courier,monospace" font-size="11.00">Operador</text>
</g>
<!-- \\odontoIFMA\\entity\\Parafuncionais -->
<g id="node8" class="node"><title>\\odontoIFMA\\entity\\Parafuncionais</title>
<polygon fill="none" stroke="black" points="373.5,-608 262.5,-608 262.5,-572 373.5,-572 373.5,-608"/>
<text text-anchor="middle" x="318" y="-587.2" font-family="Courier,monospace" font-size="11.00">Parafuncionais</text>
</g>
<!-- \\odontoIFMA\\entity\\Permissao -->
<g id="node9" class="node"><title>\\odontoIFMA\\entity\\Permissao</title>
<polygon fill="none" stroke="black" points="356.5,-554 279.5,-554 279.5,-518 356.5,-518 356.5,-554"/>
<text text-anchor="middle" x="318" y="-533.2" font-family="Courier,monospace" font-size="11.00">Permissao</text>
</g>
<!-- \\odontoIFMA\\entity\\TipoHabito -->
<g id="node10" class="node"><title>\\odontoIFMA\\entity\\TipoHabito</title>
<polygon fill="none" stroke="black" points="360,-500 276,-500 276,-464 360,-464 360,-500"/>
<text text-anchor="middle" x="318" y="-479.2" font-family="Courier,monospace" font-size="11.00">TipoHabito</text>
</g>
<!-- \\odontoIFMA\\entity\\Higiene -->
<g id="node11" class="node"><title>\\odontoIFMA\\entity\\Higiene</title>
<polygon fill="none" stroke="black" points="350,-446 286,-446 286,-410 350,-410 350,-446"/>
<text text-anchor="middle" x="318" y="-425.2" font-family="Courier,monospace" font-size="11.00">Higiene</text>
</g>
<!-- \\odontoIFMA\\entity\\DoencasPreexistentes -->
<g id="node12" class="node"><title>\\odontoIFMA\\entity\\DoencasPreexistentes</title>
<polygon fill="none" stroke="black" points="394,-392 242,-392 242,-356 394,-356 394,-392"/>
<text text-anchor="middle" x="318" y="-371.2" font-family="Courier,monospace" font-size="11.00">DoencasPreexistentes</text>
</g>
<!-- \\odontoIFMA\\entity\\Acesso -->
<g id="node13" class="node"><title>\\odontoIFMA\\entity\\Acesso</title>
<polygon fill="none" stroke="black" points="346.5,-338 289.5,-338 289.5,-302 346.5,-302 346.5,-338"/>
<text text-anchor="middle" x="318" y="-317.2" font-family="Courier,monospace" font-size="11.00">Acesso</text>
</g>
<!-- \\odontoIFMA\\entity\\TipoOperador -->
<g id="node14" class="node"><title>\\odontoIFMA\\entity\\TipoOperador</title>
<polygon fill="none" stroke="black" points="367,-284 269,-284 269,-248 367,-248 367,-284"/>
<text text-anchor="middle" x="318" y="-263.2" font-family="Courier,monospace" font-size="11.00">TipoOperador</text>
</g>
<!-- \\odontoIFMA\\entity\\QueixaPricipal -->
<g id="node15" class="node"><title>\\odontoIFMA\\entity\\QueixaPricipal</title>
<polygon fill="none" stroke="black" points="373.5,-230 262.5,-230 262.5,-194 373.5,-194 373.5,-230"/>
<text text-anchor="middle" x="318" y="-209.2" font-family="Courier,monospace" font-size="11.00">QueixaPricipal</text>
</g>
<!-- \\odontoIFMA\\entity\\HistoriaMedica -->
<g id="node16" class="node"><title>\\odontoIFMA\\entity\\HistoriaMedica</title>
<polygon fill="none" stroke="black" points="373.5,-176 262.5,-176 262.5,-140 373.5,-140 373.5,-176"/>
<text text-anchor="middle" x="318" y="-155.2" font-family="Courier,monospace" font-size="11.00">HistoriaMedica</text>
</g>
<!-- \\odontoIFMA\\entity\\Campus -->
<g id="node17" class="node"><title>\\odontoIFMA\\entity\\Campus</title>
<polygon fill="none" stroke="black" points="346.5,-122 289.5,-122 289.5,-86 346.5,-86 346.5,-122"/>
<text text-anchor="middle" x="318" y="-101.2" font-family="Courier,monospace" font-size="11.00">Campus</text>
</g>
<!-- \\odontoIFMA\\entity\\Atendimento -->
<g id="node18" class="node"><title>\\odontoIFMA\\entity\\Atendimento</title>
<polygon fill="none" stroke="black" points="363.5,-68 272.5,-68 272.5,-32 363.5,-32 363.5,-68"/>
<text text-anchor="middle" x="318" y="-47.2" font-family="Courier,monospace" font-size="11.00">Atendimento</text>
</g>
</g>
</svg>
