<?xml version="1.0" encoding="UTF-8" standalone="no"?>
<!DOCTYPE svg PUBLIC "-//W3C//DTD SVG 1.1//EN"
 "http://www.w3.org/Graphics/SVG/1.1/DTD/svg11.dtd">
<!-- Generated by graphviz version 2.38.0 (20140413.2041)
 -->
<!-- Title: G Pages: 1 -->
<svg width="434pt" height="1166pt"
 viewBox="0.00 0.00 434.00 1166.00" xmlns="http://www.w3.org/2000/svg" xmlns:xlink="http://www.w3.org/1999/xlink">
<g id="graph0" class="graph" transform="scale(1 1) rotate(0) translate(4 1162)">
<title>G</title>
<polygon fill="white" stroke="none" points="-4,4 -4,-1162 430,-1162 430,4 -4,4"/>
<g id="clust1" class="cluster"><title>cluster_Global</title>
<path fill="none" stroke="gray" d="M20,-8C20,-8 406,-8 406,-8 412,-8 418,-14 418,-20 418,-20 418,-1138 418,-1138 418,-1144 412,-1150 406,-1150 406,-1150 20,-1150 20,-1150 14,-1150 8,-1144 8,-1138 8,-1138 8,-20 8,-20 8,-14 14,-8 20,-8"/>
<text text-anchor="middle" x="213" y="-1137.2" font-family="Times,serif" font-size="11.00" fill="gray">Global</text>
</g>
<g id="clust2" class="cluster"><title>cluster_\odontoIFMA</title>
<path fill="none" stroke="gray" d="M28,-16C28,-16 398,-16 398,-16 404,-16 410,-22 410,-28 410,-28 410,-1110 410,-1110 410,-1116 404,-1122 398,-1122 398,-1122 28,-1122 28,-1122 22,-1122 16,-1116 16,-1110 16,-1110 16,-28 16,-28 16,-22 22,-16 28,-16"/>
<text text-anchor="middle" x="213" y="-1109.2" font-family="Times,serif" font-size="11.00" fill="gray">odontoIFMA</text>
</g>
<g id="clust3" class="cluster"><title>cluster_\odontoIFMA\controller</title>
<path fill="none" stroke="gray" d="M36,-860C36,-860 383,-860 383,-860 389,-860 395,-866 395,-872 395,-872 395,-1082 395,-1082 395,-1088 389,-1094 383,-1094 383,-1094 36,-1094 36,-1094 30,-1094 24,-1088 24,-1082 24,-1082 24,-872 24,-872 24,-866 30,-860 36,-860"/>
<text text-anchor="middle" x="209.5" y="-1081.2" font-family="Times,serif" font-size="11.00" fill="gray">controller</text>
</g>
<g id="clust4" class="cluster"><title>cluster_\odontoIFMA\entity</title>
<path fill="none" stroke="gray" d="M246,-24C246,-24 390,-24 390,-24 396,-24 402,-30 402,-36 402,-36 402,-840 402,-840 402,-846 396,-852 390,-852 390,-852 246,-852 246,-852 240,-852 234,-846 234,-840 234,-840 234,-36 234,-36 234,-30 240,-24 246,-24"/>
<text text-anchor="middle" x="318" y="-839.2" font-family="Times,serif" font-size="11.00" fill="gray">entity</text>
</g>
<!-- \\odontoIFMA\\controller\\IndexController -->
<g id="node1" class="node"><title>\\odontoIFMA\\controller\\IndexController</title>
<polygon fill="none" stroke="black" points="377,-1066 259,-1066 259,-1030 377,-1030 377,-1066"/>
<text text-anchor="middle" x="318" y="-1045.2" font-family="Courier,monospace" font-size="11.00">IndexController</text>
</g>
<!-- \\odontoIFMA\\controller\\AbstractController -->
<g id="node3" class="node"><title>\\odontoIFMA\\controller\\AbstractController</title>
<polygon fill="none" stroke="black" points="170,-985 32,-985 32,-949 170,-949 170,-985"/>
<text text-anchor="start" x="67" y="-970.2" font-family="Courier,monospace" font-size="11.00">«abstract»</text>
<text text-anchor="start" x="40" y="-958.2" font-family="Courier,monospace" font-size="11.00">AbstractController</text>
</g>
<!-- \\odontoIFMA\\controller\\IndexController&#45;&gt;\\odontoIFMA\\controller\\AbstractController -->
<g id="edge1" class="edge"><title>\\odontoIFMA\\controller\\IndexController&#45;&gt;\\odontoIFMA\\controller\\AbstractController</title>
<path fill="none" stroke="black" d="M259.659,-1029.96C251.025,-1027.07 242.252,-1024.03 234,-1021 207.115,-1011.14 177.582,-999.172 153.281,-989.008"/>
<polygon fill="none" stroke="black" points="154.473,-985.713 143.898,-985.065 151.761,-992.166 154.473,-985.713"/>
</g>
<!-- \\odontoIFMA\\controller\\CadastroController -->
<g id="node2" class="node"><title>\\odontoIFMA\\controller\\CadastroController</title>
<polygon fill="none" stroke="black" points="387,-1012 249,-1012 249,-976 387,-976 387,-1012"/>
<text text-anchor="middle" x="318" y="-991.2" font-family="Courier,monospace" font-size="11.00">CadastroController</text>
</g>
<!-- \\odontoIFMA\\controller\\CadastroController&#45;&gt;\\odontoIFMA\\controller\\AbstractController -->
<g id="edge2" class="edge"><title>\\odontoIFMA\\controller\\CadastroController&#45;&gt;\\odontoIFMA\\controller\\AbstractController</title>
<path fill="none" stroke="black" d="M248.973,-985.457C227.209,-982.724 202.939,-979.676 180.492,-976.857"/>
<polygon fill="none" stroke="black" points="180.681,-973.353 170.323,-975.58 179.809,-980.299 180.681,-973.353"/>
</g>
<!-- \\odontoIFMA\\controller\\TesteController -->
<g id="node4" class="node"><title>\\odontoIFMA\\controller\\TesteController</title>
<polygon fill="none" stroke="black" points="377,-958 259,-958 259,-922 377,-922 377,-958"/>
<text text-anchor="middle" x="318" y="-937.2" font-family="Courier,monospace" font-size="11.00">TesteController</text>
</g>
<!-- \\odontoIFMA\\controller\\TesteController&#45;&gt;\\odontoIFMA\\controller\\AbstractController -->
<g id="edge3" class="edge"><title>\\odontoIFMA\\controller\\TesteController&#45;&gt;\\odontoIFMA\\controller\\AbstractController</title>
<path fill="none" stroke="black" d="M258.818,-947.307C234.665,-950.34 206.27,-953.906 180.328,-957.163"/>
<polygon fill="none" stroke="black" points="179.629,-953.724 170.143,-958.443 180.501,-960.669 179.629,-953.724"/>
</g>
<!-- \\odontoIFMA\\controller\\ConsultaController -->
<g id="node5" class="node"><title>\\odontoIFMA\\controller\\ConsultaController</title>
<polygon fill="none" stroke="black" points="387,-904 249,-904 249,-868 387,-868 387,-904"/>
<text text-anchor="middle" x="318" y="-883.2" font-family="Courier,monospace" font-size="11.00">ConsultaController</text>
</g>
<!-- \\odontoIFMA\\controller\\ConsultaController&#45;&gt;\\odontoIFMA\\controller\\AbstractController -->
<g id="edge4" class="edge"><title>\\odontoIFMA\\controller\\ConsultaController&#45;&gt;\\odontoIFMA\\controller\\AbstractController</title>
<path fill="none" stroke="black" d="M259.659,-904.041C251.025,-906.934 242.252,-909.975 234,-913 207.115,-922.857 177.582,-934.828 153.281,-944.992"/>
<polygon fill="none" stroke="black" points="151.761,-941.834 143.898,-948.935 154.473,-948.287 151.761,-941.834"/>
</g>
<!-- \\odontoIFMA\\entity\\TipoHabito -->
<g id="node6" class="node"><title>\\odontoIFMA\\entity\\TipoHabito</title>
<polygon fill="none" stroke="black" points="360,-824 276,-824 276,-788 360,-788 360,-824"/>
<text text-anchor="middle" x="318" y="-803.2" font-family="Courier,monospace" font-size="11.00">TipoHabito</text>
</g>
<!-- \\odontoIFMA\\entity\\Operador -->
<g id="node7" class="node"><title>\\odontoIFMA\\entity\\Operador</title>
<polygon fill="none" stroke="black" points="353.5,-770 282.5,-770 282.5,-734 353.5,-734 353.5,-770"/>
<text text-anchor="middle" x="318" y="-749.2" font-family="Courier,monospace" font-size="11.00">Operador</text>
</g>
<!-- \\odontoIFMA\\entity\\Parafuncionais -->
<g id="node8" class="node"><title>\\odontoIFMA\\entity\\Parafuncionais</title>
<polygon fill="none" stroke="black" points="373.5,-716 262.5,-716 262.5,-680 373.5,-680 373.5,-716"/>
<text text-anchor="middle" x="318" y="-695.2" font-family="Courier,monospace" font-size="11.00">Parafuncionais</text>
</g>
<!-- \\odontoIFMA\\entity\\Acesso -->
<g id="node9" class="node"><title>\\odontoIFMA\\entity\\Acesso</title>
<polygon fill="none" stroke="black" points="346.5,-662 289.5,-662 289.5,-626 346.5,-626 346.5,-662"/>
<text text-anchor="middle" x="318" y="-641.2" font-family="Courier,monospace" font-size="11.00">Acesso</text>
</g>
<!-- \\odontoIFMA\\entity\\Paciente -->
<g id="node10" class="node"><title>\\odontoIFMA\\entity\\Paciente</title>
<polygon fill="none" stroke="black" points="353.5,-608 282.5,-608 282.5,-572 353.5,-572 353.5,-608"/>
<text text-anchor="middle" x="318" y="-587.2" font-family="Courier,monospace" font-size="11.00">Paciente</text>
</g>
<!-- \\odontoIFMA\\entity\\Atendimento -->
<g id="node11" class="node"><title>\\odontoIFMA\\entity\\Atendimento</title>
<polygon fill="none" stroke="black" points="363.5,-554 272.5,-554 272.5,-518 363.5,-518 363.5,-554"/>
<text text-anchor="middle" x="318" y="-533.2" font-family="Courier,monospace" font-size="11.00">Atendimento</text>
</g>
<!-- \\odontoIFMA\\entity\\HistoriaMedica -->
<g id="node12" class="node"><title>\\odontoIFMA\\entity\\HistoriaMedica</title>
<polygon fill="none" stroke="black" points="373.5,-500 262.5,-500 262.5,-464 373.5,-464 373.5,-500"/>
<text text-anchor="middle" x="318" y="-479.2" font-family="Courier,monospace" font-size="11.00">HistoriaMedica</text>
</g>
<!-- \\odontoIFMA\\entity\\DoencasPreexistentes -->
<g id="node13" class="node"><title>\\odontoIFMA\\entity\\DoencasPreexistentes</title>
<polygon fill="none" stroke="black" points="394,-446 242,-446 242,-410 394,-410 394,-446"/>
<text text-anchor="middle" x="318" y="-425.2" font-family="Courier,monospace" font-size="11.00">DoencasPreexistentes</text>
</g>
<!-- \\odontoIFMA\\entity\\Campus -->
<g id="node14" class="node"><title>\\odontoIFMA\\entity\\Campus</title>
<polygon fill="none" stroke="black" points="346.5,-392 289.5,-392 289.5,-356 346.5,-356 346.5,-392"/>
<text text-anchor="middle" x="318" y="-371.2" font-family="Courier,monospace" font-size="11.00">Campus</text>
</g>
<!-- \\odontoIFMA\\entity\\Higiene -->
<g id="node15" class="node"><title>\\odontoIFMA\\entity\\Higiene</title>
<polygon fill="none" stroke="black" points="350,-338 286,-338 286,-302 350,-302 350,-338"/>
<text text-anchor="middle" x="318" y="-317.2" font-family="Courier,monospace" font-size="11.00">Higiene</text>
</g>
<!-- \\odontoIFMA\\entity\\Permissao -->
<g id="node16" class="node"><title>\\odontoIFMA\\entity\\Permissao</title>
<polygon fill="none" stroke="black" points="356.5,-284 279.5,-284 279.5,-248 356.5,-248 356.5,-284"/>
<text text-anchor="middle" x="318" y="-263.2" font-family="Courier,monospace" font-size="11.00">Permissao</text>
</g>
<!-- \\odontoIFMA\\entity\\TipoOperador -->
<g id="node17" class="node"><title>\\odontoIFMA\\entity\\TipoOperador</title>
<polygon fill="none" stroke="black" points="367,-230 269,-230 269,-194 367,-194 367,-230"/>
<text text-anchor="middle" x="318" y="-209.2" font-family="Courier,monospace" font-size="11.00">TipoOperador</text>
</g>
<!-- \\odontoIFMA\\entity\\QueixaPricipal -->
<g id="node18" class="node"><title>\\odontoIFMA\\entity\\QueixaPricipal</title>
<polygon fill="none" stroke="black" points="373.5,-176 262.5,-176 262.5,-140 373.5,-140 373.5,-176"/>
<text text-anchor="middle" x="318" y="-155.2" font-family="Courier,monospace" font-size="11.00">QueixaPricipal</text>
</g>
<!-- \\odontoIFMA\\entity\\Agendamento -->
<g id="node19" class="node"><title>\\odontoIFMA\\entity\\Agendamento</title>
<polygon fill="none" stroke="black" points="363.5,-122 272.5,-122 272.5,-86 363.5,-86 363.5,-122"/>
<text text-anchor="middle" x="318" y="-101.2" font-family="Courier,monospace" font-size="11.00">Agendamento</text>
</g>
<!-- \\odontoIFMA\\entity\\StatusAgendamento -->
<g id="node20" class="node"><title>\\odontoIFMA\\entity\\StatusAgendamento</title>
<polygon fill="none" stroke="black" points="383.5,-68 252.5,-68 252.5,-32 383.5,-32 383.5,-68"/>
<text text-anchor="middle" x="318" y="-47.2" font-family="Courier,monospace" font-size="11.00">StatusAgendamento</text>
</g>
</g>
</svg>
